{
  "accessors": [
    {
      "bufferView": 2,
      "componentType": 5126,
      "count": 448,
      "max": [
        0.9700999855995178,
        0.9700999855995178,
        0.9693400263786316
      ],
      "min": [
        -0.9700999855995178,
        -0.9700999855995178,
        -0.9693400263786316
      ],
      "type": "VEC3"
    },
    {
      "bufferView": 2,
      "byteOffset": 5376,
      "componentType": 5126,
      "count": 448,
      "max": [
        0.9711939096450806,
        0.9707931876182556,
        0.9831429719924927
      ],
      "min": [
        -0.9711939096450806,
        -0.9707931876182556,
        -0.9831429719924927
      ],
      "type": "VEC3"
    },
    {
      "bufferView": 1,
      "componentType": 5126,
      "count": 448,
      "max": [
        0.9818999767303467,
        0.9854900240898132
      ],
      "min": [
        0.014139999635517597,
        0.019039999693632126
      ],
      "type": "VEC2"
    },
    {
      "bufferView": 0,
      "componentType": 5125,
      "count": 1872,
      "type": "SCALAR"
    },
    {
      "bufferView": 2,
      "byteOffset": 10752,
      "componentType": 5126,
      "count": 496,
      "max": [
        0.9700999855995178,
        0.9700999855995178,
        0.9693400263786316
      ],
      "min": [
        -0.9700999855995178,
        -0.9700999855995178,
        -0.9693400263786316
      ],
      "type": "VEC3"
    },
    {
      "bufferView": 2,
      "byteOffset": 16704,
      "componentType": 5126,
      "count": 496,
      "max": [
        1.0,
        1.0,
        1.0
      ],
      "min": [
        -1.0,
        -1.0,
        -1.0
      ],
      "type": "VEC3"
    },
    {
      "bufferView": 1,
      "byteOffset": 3584,
      "componentType": 5126,
      "count": 496,
      "max": [
        0.9884799718856812,
        0.9924399852752686
      ],
      "min": [
        0.0075599998235702515,
        0.01181000005453825
      ],
      "type": "VEC2"
    },
    {
      "bufferView": 0,
      "byteOffset": 7488,
      "componentType": 5125,
      "count": 1680,
      "type": "SCALAR"
    }
  ],
  "asset": {
    "extras": {
      "author": "afurokn (https://sketchfab.com/afurokn)",
      "license": "CC-BY-4.0 (http://creativecommons.org/licenses/by/4.0/)",
      "source": "https://sketchfab.com/3d-models/basketball-2343abdae7674f46ad85071858db93c6",
      "title": "Basketball"
    },
    "generator": "Sketchfab-12.65.0",
    "version": "2.0"
  },
  "bufferViews": [
    {
      "buffer": 0,
      "byteLength": 14208,
      "name": "floatBufferViews",
      "target": 34963
    },
    {
      "buffer": 0,
      "byteLength": 7552,
      "byteOffset": 14208,
      "byteStride": 8,
      "name": "floatBufferViews",
      "target": 34962
    },
    {
      "buffer": 0,
      "byteLength": 22656,
      "byteOffset": 21760,
      "byteStride": 12,
      "name": "floatBufferViews",
      "target": 34962
    }
  ],
  "buffers": [
    {
      "byteLength": 44416,
      "uri": "scene.bin"
    }
  ],
  "materials": [
    {
      "doubleSided": true,
      "name": "Material",
      "pbrMetallicRoughness": {
        "baseColorFactor": [
          0.8103699510436352,
          0.19837352793584132,
          0.04772903353533461,
          1.0
        ],
        "metallicFactor": 0.3231707317073171,
        "roughnessFactor": 0.5670731707317074
      }
    },
    {
      "doubleSided": true,
      "name": "Material.001",
      "pbrMetallicRoughness": {
        "baseColorFactor": [
          0.0031277375280253797,
          0.009370763590102475,
          0.01101123050028984,
          1.0
        ],
        "metallicFactor": 0.18902439024390244,
        "roughnessFactor": 0.45121951219512196
      }
    }
  ],
  "meshes": [
    {
      "name": "Basketball_0",
      "primitives": [
        {
          "attributes": {
            "NORMAL": 1,
            "POSITION": 0,
            "TEXCOORD_0": 2
          },
          "indices": 3,
          "material": 0,
          "mode": 4
        }
      ]
    },
    {
      "name": "Basketball_1",
      "primitives": [
        {
          "attributes": {
            "NORMAL": 5,
            "POSITION": 4,
            "TEXCOORD_0": 6
          },
          "indices": 7,
          "material": 1,
          "mode": 4
        }
      ]
    }
  ],
  "nodes": [
    {
      "children": [
        1
      ],
      "matrix": [
        1.0,
        0.0,
        0.0,
        0.0,
        0.0,
        2.220446049250313e-16,
        -1.0,
        0.0,
        0.0,
        1.0,
        2.220446049250313e-16,
        0.0,
        0.0,
        0.0,
        0.0,
        1.0
      ],
      "name": "Sketchfab_model"
    },
    {
      "children": [
        2
      ],
      "name": "Root"
    },
    {
      "children": [
        3,
        4
      ],
      "name": "Basketball"
    },
    {
      "mesh": 0,
      "name": "Basketball_0"
    },
    {
      "mesh": 1,
      "name": "Basketball_1"
    }
  ],
  "scene": 0,
  "scenes": [
    {
      "name": "Sketchfab_Scene",
      "nodes": [
        0
      ]
    }
  ]
}
